<svg width="55" height="30" viewBox="0 0 55 30" fill="none" xmlns="http://www.w3.org/2000/svg">
<path d="M17.7843 14.6344C17.7843 15.2125 17.5814 15.693 17.1756 16.0758C16.7697 16.4586 16.2724 16.65 15.6836 16.65C15.2221 16.65 14.8521 16.525 14.5736 16.275C14.2951 16.025 14.1558 15.6813 14.1558 15.2438C14.1558 14.6656 14.3547 14.1774 14.7526 13.7789C15.1505 13.3805 15.6438 13.1813 16.2326 13.1813C16.6782 13.1813 17.0483 13.3102 17.3427 13.568C17.6371 13.8258 17.7843 14.1813 17.7843 14.6344ZM36.5234 11.1422C36.5234 11.7985 36.3484 12.2438 35.9983 12.4781C35.6481 12.7125 35.123 12.8297 34.4227 12.8297L33.6589 12.8531L34.0647 10.3453C34.0965 10.1735 34.1999 10.0875 34.375 10.0875H34.8047C35.1548 10.0875 35.4333 10.1031 35.6402 10.1344C35.8471 10.1656 36.046 10.2633 36.237 10.4274C36.428 10.5914 36.5234 10.8297 36.5234 11.1422ZM44.9023 14.6344C44.9023 15.1969 44.6994 15.6735 44.2936 16.0641C43.8878 16.4547 43.3984 16.65 42.8255 16.65C42.364 16.65 41.99 16.525 41.7036 16.275C41.4171 16.025 41.2739 15.6813 41.2739 15.2438C41.2739 14.6656 41.4728 14.1774 41.8707 13.7789C42.2685 13.3805 42.7619 13.1813 43.3507 13.1813C43.7963 13.1813 44.1663 13.3102 44.4607 13.568C44.7551 13.8258 44.9023 14.1813 44.9023 14.6344ZM12.2461 10.6266C12.2461 9.70471 11.9397 9.03674 11.327 8.62268C10.7143 8.20862 9.91464 8.00159 8.92795 8.00159H5.10851C4.80613 8.00159 4.63903 8.15002 4.6072 8.4469L3.05556 18.0094C3.03964 18.1031 3.06351 18.1891 3.12717 18.2672C3.19083 18.3453 3.2704 18.3844 3.36589 18.3844H5.18012C5.49841 18.3844 5.67347 18.236 5.7053 17.9391L6.13498 15.361C6.1509 15.236 6.2066 15.1344 6.30208 15.0563C6.39757 14.9781 6.51693 14.9274 6.66016 14.9039C6.80339 14.8805 6.93866 14.8688 7.06597 14.8688C7.19329 14.8688 7.34447 14.8766 7.51953 14.8922C7.69459 14.9078 7.80599 14.9156 7.85373 14.9156C9.22237 14.9156 10.2966 14.5367 11.0764 13.7789C11.8562 13.0211 12.2461 11.9703 12.2461 10.6266ZM19.6224 17.9391L20.6011 11.8219C20.617 11.7281 20.5932 11.6422 20.5295 11.5641C20.4659 11.486 20.3863 11.4469 20.2908 11.4469H18.4766C18.2538 11.4469 18.1185 11.7047 18.0707 12.2203C17.6411 11.5953 16.8851 11.2828 15.803 11.2828C14.6571 11.2828 13.6824 11.7047 12.8787 12.5485C12.075 13.3922 11.6732 14.3844 11.6732 15.525C11.6732 16.4469 11.9477 17.1813 12.4967 17.7281C13.0458 18.275 13.7818 18.5485 14.7049 18.5485C15.1505 18.5485 15.612 18.4547 16.0894 18.2672C16.5668 18.0797 16.9488 17.8297 17.2352 17.5172C17.1716 17.7047 17.1398 17.8688 17.1398 18.0094C17.1398 18.2594 17.2432 18.3844 17.4501 18.3844H19.0972C19.3996 18.3844 19.5747 18.236 19.6224 17.9391ZM30.293 11.775C30.293 11.6969 30.2611 11.6227 30.1975 11.5524C30.1338 11.4821 30.0622 11.4469 29.9826 11.4469H28.1445C27.9695 11.4469 27.8262 11.525 27.7148 11.6813L25.1845 15.3375L24.1341 11.8219C24.0545 11.5719 23.8795 11.4469 23.6089 11.4469H21.8186C21.739 11.4469 21.6674 11.4821 21.6037 11.5524C21.5401 11.6227 21.5082 11.6969 21.5082 11.775C21.5082 11.8063 21.6634 12.2672 21.9737 13.1578C22.2841 14.0485 22.6183 15.0094 22.9763 16.0406C23.3344 17.0719 23.5214 17.6188 23.5373 17.6813C22.2323 19.4313 21.5799 20.3688 21.5799 20.4938C21.5799 20.6969 21.6833 20.7985 21.8902 20.7985H23.7283C23.9034 20.7985 24.0466 20.7203 24.158 20.5641L30.2452 11.9391C30.2771 11.9078 30.293 11.8531 30.293 11.775ZM39.3642 10.6266C39.3642 9.70471 39.0578 9.03674 38.4451 8.62268C37.8324 8.20862 37.0327 8.00159 36.046 8.00159H32.2504C31.9321 8.00159 31.7571 8.15002 31.7253 8.4469L30.1736 18.0094C30.1577 18.1031 30.1816 18.1891 30.2452 18.2672C30.3089 18.3453 30.3885 18.3844 30.4839 18.3844H32.4414C32.6324 18.3844 32.7597 18.2828 32.8234 18.0797L33.253 15.361C33.269 15.236 33.3247 15.1344 33.4201 15.0563C33.5156 14.9781 33.635 14.9274 33.7782 14.9039C33.9214 14.8805 34.0567 14.8688 34.184 14.8688C34.3113 14.8688 34.4625 14.8766 34.6376 14.8922C34.8126 14.9078 34.924 14.9156 34.9718 14.9156C36.3404 14.9156 37.4146 14.5367 38.1944 13.7789C38.9742 13.0211 39.3642 11.9703 39.3642 10.6266ZM46.7405 17.9391L47.7192 11.8219C47.7351 11.7281 47.7112 11.6422 47.6476 11.5641C47.5839 11.486 47.5043 11.4469 47.4089 11.4469H45.5946C45.3718 11.4469 45.2365 11.7047 45.1888 12.2203C44.775 11.5953 44.0191 11.2828 42.921 11.2828C41.7752 11.2828 40.8004 11.7047 39.9967 12.5485C39.1931 13.3922 38.7912 14.3844 38.7912 15.525C38.7912 16.4469 39.0658 17.1813 39.6148 17.7281C40.1638 18.275 40.8999 18.5485 41.8229 18.5485C42.2844 18.5485 42.7539 18.4547 43.2313 18.2672C43.7088 18.0797 44.0828 17.8297 44.3533 17.5172C44.3533 17.5328 44.3374 17.6031 44.3056 17.7281C44.2737 17.8531 44.2578 17.9469 44.2578 18.0094C44.2578 18.2594 44.3613 18.3844 44.5681 18.3844H46.2153C46.5177 18.3844 46.6927 18.236 46.7405 17.9391ZM51.9444 8.35315V8.32971C51.9444 8.11096 51.841 8.00159 51.6341 8.00159H49.8676C49.6926 8.00159 49.5891 8.08752 49.5573 8.2594L48.0056 18.0094L47.9818 18.0563C47.9818 18.1344 48.0136 18.2086 48.0773 18.2789C48.1409 18.3492 48.2205 18.3844 48.316 18.3844H49.8915C50.1939 18.3844 50.361 18.236 50.3928 17.9391L51.9444 8.35315ZM9.35764 11.4938C9.27807 12.0406 9.07118 12.4 8.73698 12.5719C8.40278 12.7438 7.92535 12.8297 7.30469 12.8297L6.51693 12.8531L6.92274 10.3453C6.95457 10.1735 7.05801 10.0875 7.23307 10.0875H7.68663C8.32321 10.0875 8.78472 10.1774 9.07118 10.3571C9.35764 10.5367 9.45312 10.9156 9.35764 11.4938ZM55 -0.599976V29.4C55 30.2125 54.6976 30.9156 54.0929 31.5094C53.4881 32.1031 52.772 32.4 51.9444 32.4H3.05556C2.22801 32.4 1.51186 32.1031 0.907118 31.5094C0.302373 30.9156 0 30.2125 0 29.4V-0.599976C0 -1.41248 0.302373 -2.1156 0.907118 -2.70935C1.51186 -3.3031 2.22801 -3.59998 3.05556 -3.59998H51.9444C52.772 -3.59998 53.4881 -3.3031 54.0929 -2.70935C54.6976 -2.1156 55 -1.41248 55 -0.599976Z" fill="#506B53"/>
</svg>
