<svg width="40" height="18" viewBox="0 0 40 18" fill="none" xmlns="http://www.w3.org/2000/svg">
<path d="M15.187 0.345312L9.95 12.8387H6.53344L3.95625 2.86781C3.8 2.25516 3.66422 2.02969 3.18875 1.77062C2.41156 1.34844 1.12812 0.953594 0 0.707969L0.0760937 0.345312H5.57672C6.27672 0.345312 6.90703 0.811406 7.06734 1.61844L8.42906 8.84859L11.7909 0.345312H15.187ZM19.8058 0.345312L17.1334 12.8387H13.9009L16.5736 0.345312H19.8059H19.8058ZM28.5739 8.75969C28.5873 5.46297 24.0155 5.28 24.0453 3.80703C24.0562 3.35922 24.4828 2.8825 25.4166 2.76062C25.8791 2.70078 27.1569 2.65312 28.6042 3.32L29.1705 0.669062C28.3928 0.387812 27.392 0.117188 26.1472 0.117188C22.9519 0.117188 20.7042 1.81437 20.6862 4.24656C20.6653 6.04562 22.2917 7.04828 23.5148 7.6475C24.7747 8.25937 25.1972 8.65266 25.1914 9.19953C25.1823 10.0378 24.1852 10.4089 23.2581 10.4227C21.6325 10.4484 20.6902 9.98328 19.9384 9.63312L19.3517 12.3719C20.108 12.7184 21.5017 13.0195 22.9453 13.0348C26.3422 13.0348 28.5639 11.3572 28.5739 8.75984V8.75969ZM37.0114 12.8387H40L37.3891 0.345312H34.6317C34.0098 0.345312 33.4872 0.70625 33.2553 1.26109L28.4053 12.8387H31.7995L32.4728 10.9725H36.6197L37.0116 12.8387H37.0114ZM33.4036 8.41234L35.1055 3.72062L36.0831 8.41234H33.4034H33.4036ZM23.9427 16.2777H22.6292V17.5H24.0983V17.8675H22.1867V14.4766H24.023V14.8441H22.6292V15.9155H23.9425V16.278L23.9427 16.2777ZM24.7769 14.2955H25.2194V17.8673H24.7769V14.2955ZM26.3359 16.7303C26.3459 17.3292 26.7234 17.5756 27.1709 17.5756C27.4881 17.5756 27.6842 17.5203 27.8455 17.45L27.9258 17.767C27.7698 17.8373 27.4983 17.9228 27.1106 17.9228C26.3612 17.9228 25.9136 17.4248 25.9136 16.6902C25.9136 15.9558 26.3459 15.382 27.0555 15.382C27.8555 15.382 28.0617 16.0766 28.0617 16.5242C28.0617 16.6147 28.0566 16.68 28.0464 16.7305H26.3359V16.7303ZM27.6339 16.4134C27.6391 16.1369 27.5183 15.6991 27.0202 15.6991C26.5673 15.6991 26.3761 16.1066 26.3408 16.4134H27.6339ZM30.4705 17.7819C30.3548 17.8373 30.0981 17.923 29.7712 17.923C29.0367 17.923 28.5588 17.4248 28.5588 16.6802C28.5588 15.9305 29.0717 15.3822 29.8667 15.3822C30.1283 15.3822 30.3597 15.4473 30.4805 15.513L30.3802 15.85C30.2741 15.7947 30.1081 15.7341 29.8667 15.7341C29.3081 15.7341 29.0066 16.1517 29.0066 16.6552C29.0066 17.2184 29.3687 17.5656 29.8517 17.5656C30.1033 17.5656 30.2692 17.5053 30.395 17.45L30.4705 17.7819ZM31.7123 14.8487V15.4323H32.3461V15.7692H31.7123V17.0825C31.7123 17.3847 31.798 17.5555 32.0444 17.5555C32.165 17.5555 32.2356 17.5456 32.3011 17.5252L32.3213 17.8627C32.2356 17.8927 32.0998 17.9228 31.9287 17.9228C31.7223 17.9228 31.5563 17.8523 31.4508 17.7369C31.33 17.6008 31.2797 17.3847 31.2797 17.0978V15.7692H30.9022V15.4323H31.2797V14.9797L31.7125 14.8489L31.7123 14.8487ZM32.9644 16.1922C32.9644 15.9053 32.9591 15.6589 32.9442 15.4323H33.3317L33.352 15.9152H33.3667C33.4777 15.5884 33.7491 15.382 34.0458 15.382C34.0913 15.382 34.1266 15.3872 34.1669 15.392V15.8098C34.1216 15.7995 34.0764 15.7995 34.0156 15.7995C33.7041 15.7995 33.4823 16.0309 33.4222 16.3633C33.4118 16.4315 33.4067 16.5005 33.407 16.5695V17.8677H32.9644V16.1922ZM36.888 16.6297C36.888 17.5303 36.2589 17.9228 35.6755 17.9228C35.0212 17.9228 34.5083 17.4397 34.5083 16.6702C34.5083 15.86 35.0466 15.3822 35.7158 15.3822C36.415 15.3822 36.888 15.89 36.888 16.6298V16.6297ZM34.9609 16.655C34.9609 17.1883 35.2628 17.5909 35.6955 17.5909C36.1183 17.5909 36.435 17.1931 36.435 16.6448C36.435 16.2323 36.2287 15.7139 35.7055 15.7139C35.1875 15.7139 34.9609 16.1972 34.9609 16.655ZM37.5664 16.0914C37.5664 15.835 37.5611 15.6336 37.5461 15.4325H37.9386L37.9637 15.835H37.9738C38.0945 15.6084 38.3763 15.3822 38.7788 15.3822C39.1156 15.3822 39.6391 15.5834 39.6391 16.4183V17.8675H39.1964V16.4637C39.1964 16.0716 39.0505 15.7442 38.633 15.7442C38.3461 15.7442 38.1195 15.9506 38.0394 16.197C38.0191 16.2525 38.0091 16.3278 38.0091 16.4034V17.8675H37.5664V16.0914Z" fill="#20B4E2"/>
</svg>
